<mxfile host="app.diagrams.net" modified="2024-03-17T05:37:14.686Z" agent="Mozilla/5.0 (Macintosh; Intel Mac OS X 10_15_7) AppleWebKit/537.36 (KHTML, like Gecko) Chrome/122.0.0.0 Safari/537.36" etag="5p08dc_TJwAwnOIiJxmN" version="24.0.4" type="device">
  <diagram name="Page-1" id="x2UxyvRBdZ-rF88mvOd2">
    <mxGraphModel dx="1434" dy="761" grid="1" gridSize="10" guides="1" tooltips="1" connect="1" arrows="1" fold="1" page="1" pageScale="1" pageWidth="827" pageHeight="1169" math="0" shadow="0">
      <root>
        <mxCell id="0" />
        <mxCell id="1" parent="0" />
        <mxCell id="y4LLOrizasRQPmOug3TV-10" style="edgeStyle=orthogonalEdgeStyle;rounded=0;orthogonalLoop=1;jettySize=auto;html=1;" edge="1" parent="1" target="y4LLOrizasRQPmOug3TV-5">
          <mxGeometry relative="1" as="geometry">
            <mxPoint x="520" y="200" as="sourcePoint" />
          </mxGeometry>
        </mxCell>
        <mxCell id="y4LLOrizasRQPmOug3TV-1" value="VPC" style="points=[[0,0],[0.25,0],[0.5,0],[0.75,0],[1,0],[1,0.25],[1,0.5],[1,0.75],[1,1],[0.75,1],[0.5,1],[0.25,1],[0,1],[0,0.75],[0,0.5],[0,0.25]];outlineConnect=0;html=1;whiteSpace=wrap;fontSize=12;fontStyle=0;container=1;pointerEvents=0;collapsible=0;recursiveResize=0;shape=mxgraph.aws4.group;grIcon=mxgraph.aws4.group_vpc2;verticalAlign=top;align=left;spacingLeft=30;dashed=0;" vertex="1" parent="1">
          <mxGeometry x="80" y="90" width="440" height="230" as="geometry" />
        </mxCell>
        <mxCell id="y4LLOrizasRQPmOug3TV-3" value="Public subnet" style="points=[[0,0],[0.25,0],[0.5,0],[0.75,0],[1,0],[1,0.25],[1,0.5],[1,0.75],[1,1],[0.75,1],[0.5,1],[0.25,1],[0,1],[0,0.75],[0,0.5],[0,0.25]];outlineConnect=0;gradientColor=none;html=1;whiteSpace=wrap;fontSize=12;fontStyle=0;container=1;pointerEvents=0;collapsible=0;recursiveResize=0;shape=mxgraph.aws4.group;grIcon=mxgraph.aws4.group_security_group;grStroke=0;strokeColor=#7AA116;fillColor=#F2F6E8;verticalAlign=top;align=left;spacingLeft=30;fontColor=#248814;dashed=0;" vertex="1" parent="y4LLOrizasRQPmOug3TV-1">
          <mxGeometry x="15" y="40" width="410" height="160" as="geometry" />
        </mxCell>
        <mxCell id="y4LLOrizasRQPmOug3TV-2" value="" style="outlineConnect=0;dashed=0;verticalLabelPosition=bottom;verticalAlign=top;align=center;html=1;shape=mxgraph.aws3.ec2;fillColor=#F58534;gradientColor=none;" vertex="1" parent="y4LLOrizasRQPmOug3TV-3">
          <mxGeometry x="178.38" y="50" width="53.25" height="60" as="geometry" />
        </mxCell>
        <mxCell id="y4LLOrizasRQPmOug3TV-12" value="Security group" style="fillColor=none;strokeColor=#DD3522;verticalAlign=top;fontStyle=0;fontColor=#DD3522;whiteSpace=wrap;html=1;" vertex="1" parent="y4LLOrizasRQPmOug3TV-3">
          <mxGeometry x="140" y="15" width="130" height="130" as="geometry" />
        </mxCell>
        <mxCell id="y4LLOrizasRQPmOug3TV-13" value="80" style="text;html=1;align=center;verticalAlign=middle;resizable=0;points=[];autosize=1;strokeColor=none;fillColor=none;" vertex="1" parent="y4LLOrizasRQPmOug3TV-3">
          <mxGeometry x="135" y="120" width="40" height="30" as="geometry" />
        </mxCell>
        <mxCell id="y4LLOrizasRQPmOug3TV-14" value="22" style="text;html=1;align=center;verticalAlign=middle;resizable=0;points=[];autosize=1;strokeColor=none;fillColor=none;" vertex="1" parent="y4LLOrizasRQPmOug3TV-3">
          <mxGeometry x="235" y="120" width="40" height="30" as="geometry" />
        </mxCell>
        <mxCell id="y4LLOrizasRQPmOug3TV-11" style="edgeStyle=orthogonalEdgeStyle;rounded=0;orthogonalLoop=1;jettySize=auto;html=1;entryX=1;entryY=0.5;entryDx=0;entryDy=0;" edge="1" parent="1" source="y4LLOrizasRQPmOug3TV-5">
          <mxGeometry relative="1" as="geometry">
            <mxPoint x="520" y="200" as="targetPoint" />
          </mxGeometry>
        </mxCell>
        <mxCell id="y4LLOrizasRQPmOug3TV-5" value="" style="sketch=0;outlineConnect=0;fontColor=#232F3E;gradientColor=none;fillColor=#8C4FFF;strokeColor=none;dashed=0;verticalLabelPosition=bottom;verticalAlign=top;align=center;html=1;fontSize=12;fontStyle=0;aspect=fixed;pointerEvents=1;shape=mxgraph.aws4.internet_gateway;" vertex="1" parent="1">
          <mxGeometry x="560" y="175" width="50" height="50" as="geometry" />
        </mxCell>
        <mxCell id="y4LLOrizasRQPmOug3TV-16" style="edgeStyle=orthogonalEdgeStyle;rounded=0;orthogonalLoop=1;jettySize=auto;html=1;" edge="1" parent="1" source="y4LLOrizasRQPmOug3TV-15" target="y4LLOrizasRQPmOug3TV-5">
          <mxGeometry relative="1" as="geometry" />
        </mxCell>
        <mxCell id="y4LLOrizasRQPmOug3TV-15" value="" style="image;aspect=fixed;perimeter=ellipsePerimeter;html=1;align=center;shadow=0;dashed=0;spacingTop=3;image=img/lib/active_directory/user.svg;" vertex="1" parent="1">
          <mxGeometry x="660" y="162.5" width="27.75" height="75" as="geometry" />
        </mxCell>
      </root>
    </mxGraphModel>
  </diagram>
</mxfile>
